<?xml version="1.0" encoding="utf-8"?>
<!-- Generator: Adobe Illustrator 23.0.1, SVG Export Plug-In . SVG Version: 6.00 Build 0)  -->
<svg version="1.1" id="Laag_1" xmlns="http://www.w3.org/2000/svg" xmlns:xlink="http://www.w3.org/1999/xlink" x="0px" y="0px"
	 width="123px" height="33px" viewBox="0 0 123 33" style="enable-background:new 0 0 123 33;" xml:space="preserve">
<style type="text/css">
	.st0{fill-rule:evenodd;clip-rule:evenodd;fill:#FFFFFF;}
</style>
<title>Dolfinarium_logo_white</title>
<g>
	<path class="st0" d="M66.7,22.4L66.7,22.4c-0.4-0.3-0.5-0.9-0.6-1.2V17c0-0.8-0.6-1.1-1.2-1.1h-1.2V21c0,1.5,0.6,2.7,1.6,3.4
		c0,0,0.3,0.2,0.9,0.3c0.6,0.1,1.1-0.6,1.1-1.2C67.4,23,67.1,22.6,66.7,22.4 M63.7,12.6v0.1c0,0.7,0.6,1.1,1.2,1.1
		c0.6,0,1.2-0.4,1.2-1.1v-1.3h-1.2C64.3,11.5,63.8,11.9,63.7,12.6 M98.2,22.4L98.2,22.4c-0.4-0.3-0.5-0.9-0.6-1.2V17
		c0-0.7-0.6-1.1-1.2-1.1h-1.2v5.1c0,1.5,0.6,2.7,1.6,3.4c0,0,0.3,0.2,0.9,0.3c0.6,0.1,1.1-0.6,1.1-1.2C99,23,98.7,22.6,98.2,22.4
		 M95.3,12.6v0.1c0,0.7,0.6,1.1,1.2,1.1c0.6,0,1.2-0.4,1.2-1.1v-1.3h-1.2C95.9,11.5,95.3,11.9,95.3,12.6 M108.3,20.9v-5.8
		c0-0.7-0.6-1.1-1.2-1.1H106v7c0,0.9-0.8,1.7-1.7,1.7c-1,0-1.7-0.7-1.7-1.7v-5.8c0-0.7-0.6-1.1-1.2-1.1h-1.2v7c0,2.2,1.8,4,4,4
		C106.5,24.8,108.3,23.1,108.3,20.9 M79.4,14.9c-0.2,0.3-0.4,0.5-0.4,0.8c0,0.6,0.5,1,1.1,1c0.4,0,0.7-0.3,1-0.5
		c0.3-0.3,0.6-0.6,1.3-0.6c1,0,1.5,0.7,1.5,1.6v0.3L82,18.1c-2.2,0.5-3.4,1.8-3.4,3.5c0,2.2,1.9,3.3,3.7,3.3c2.1,0,3.7-1.5,3.7-3.5
		v-4c0-2.1-1.5-3.7-3.7-3.7C81.1,13.6,80.1,14.1,79.4,14.9L79.4,14.9z M80.7,21.5c0-0.6,0.6-1.2,1.6-1.4l1.6-0.4v1.6
		c0,0.8-0.6,1.4-1.6,1.4C81.3,22.7,80.7,22.3,80.7,21.5L80.7,21.5z M41.6,17.5v3.4c0,2.2,1.8,3.9,4,3.9c2.2,0,4-1.8,4-3.9v-3.4
		c0-2.2-1.8-3.9-4-3.9C43.4,13.6,41.6,15.4,41.6,17.5L41.6,17.5z M43.9,20.9v-3.4c0-0.9,0.8-1.7,1.7-1.7c1,0,1.7,0.7,1.7,1.7v3.4
		c0,0.9-0.8,1.7-1.7,1.7C44.6,22.6,43.9,21.8,43.9,20.9L43.9,20.9z M38.4,9.1h-1.2v4.5c0,0-1.1,0-1.7,0c-2.2,0-4,1.8-4,4v3.3
		c0,2.2,1.8,4,4,4c2.2,0,4-1.8,4-4.1V10.1C39.6,9.5,39,9.1,38.4,9.1L38.4,9.1z M37.3,20.9c0,0.9-0.8,1.7-1.7,1.7
		c-1,0-1.7-0.7-1.7-1.7v-3.3c0-0.9,0.8-1.7,1.7-1.7h1.7L37.3,20.9L37.3,20.9z M76.8,17.5c0-2.2-1.8-4-4-4c-2.2,0-4,1.8-4,4v6
		c0,0.7,0.6,1.1,1.2,1.1c0.6,0,1.2-0.4,1.2-1.1l0-6c0-0.9,0.8-1.7,1.7-1.7s1.7,0.7,1.7,1.7h0v6c0,0.7,0.6,1.1,1.2,1.1
		c0.6,0,1.2-0.4,1.2-1.1L76.8,17.5 M53.9,10.2c0-0.7-0.6-1.1-1.2-1.1h-1.2v14.4c0,0.7,0.6,1.1,1.2,1.1c0.6,0,1.2-0.4,1.2-1.1
		C53.9,16,53.9,17.1,53.9,10.2 M90.9,13.9c-2,0-3,0.9-3,3.2v1.1c0,0.1,0,0.2,0,0.3l0,5c0,0.8,0.6,1.1,1.2,1.1c0.6,0,1.2-0.4,1.2-1.1
		l0-5l0,0v-1.4c0-0.6,0.4-0.9,1-0.9h1.2c0.6,0,1.2-0.4,1.2-1.1v-1.1H90.9 M60,9.4c-2,0-3.5,1.4-3.5,3v5.2c0,0.2,0,0.2,0,0.2v5.7
		c0,0.7,0.6,1.1,1.2,1.1c0.6,0,1.2-0.4,1.2-1.1v-1.7h0c0,0,0-2.4,0-4l0,0h0v-1.6h1.8c0.8,0,1.2-0.6,1.2-1.1v-1.1h-3v-1.3
		c0-0.8,0.8-0.9,1.2-0.9h1.3c0.6,0,1.2-0.4,1.2-1.1V9.4L60,9.4 M116.4,14.6c-0.7-0.7-1.6-1.1-2.6-1.1c-2,0-3.7,1.6-3.7,3.6v6.4
		c0,0.7,0.5,1.1,1.1,1.1c0.5,0,1.1-0.4,1.1-1.1v-6.5c0-0.8,0.7-1.4,1.5-1.4c0.8,0,1.5,0.7,1.5,1.5v6.4c0,0.7,0.5,1.1,1.1,1.1
		c0.5,0,1.1-0.4,1.1-1.1v-6.4c0-0.8,0.7-1.5,1.5-1.5c0.8,0,1.5,0.7,1.5,1.5v6.4c0,0.7,0.5,1.1,1.1,1.1s1.1-0.4,1.1-1.1v-6.4
		c0-2-1.6-3.6-3.7-3.6C118,13.6,117.1,13.9,116.4,14.6"/>
</g>
<g>
	<path class="st0" d="M18.9,20.6c-0.1-0.6-1.8-0.3-5.1,1.9c-1.6,1.2,3.1-0.4,3.6,0c0.2,0.2,1.3,1.9,1.8,2
		C19.7,24.7,19,20.9,18.9,20.6"/>
	<path class="st0" d="M9.1,27.3c-0.2-1,2.3-1.6,8.4-0.6c3.1,0.6-4.6,1.4-5,2.3c-0.2,0.4-0.6,3.5-1.1,4C10.7,33.5,9.1,27.8,9.1,27.3"
		/>
	<path class="st0" d="M21.1,14.2c0.8,0.4,1.6,0.8,2.5,1.2c1.6,0.9,4.2,1.6,2.4-1.1c-1.1-1.7-0.6-2.8-1.2-4.8C24,7.1,23.1,5.9,21.4,4
		c-2.5-2.7-6.5-4-10-3.7C9,0.6,6.6,1.9,6.3,1.7C4.9,0.9,1.8-0.7,2.9,2.2c1.2,3.3-3,5.3-2.9,10.9c0.1,7.2,7.1,12.9,7.5,13
		c0.9,0.2,1-0.6,1-1.3c-0.1-2.4,0.3-3.9,1-6.2c0.6-1.4,1.8-2.9,3.7-3.9c0.3-0.2,0.5-0.2,0.5-0.3c0-0.1-0.3-0.1-0.5-0.1
		c-1.4-0.1-2.7,0-4,0.8c-1,0.7-1.5,1.4-2.2,2.3c-0.7,1-2,2.1-1.7,0c0.2-1.3-0.3-1.5-0.6-3.1c-0.3-1.6-0.1-2.6,0.4-4.1
		C6,8,7.9,6.1,10.1,5.4c2.1-0.7,3.3-0.4,3.4-0.6c0.6-0.8,1.9-2.7,2.1-0.7c0.2,2.3,3.2,2.3,4.7,5.6c0.6,1.3,0.6,2.6,0.6,3.9
		C20.9,13.9,20.9,14,21.1,14.2"/>
</g>
</svg>
